# xmcd
#
# Track frame offsets:
#	150
#	13635
#	25734
#	46997
#	58826
#	69406
#	82500
#	94432
#	107679
#	122134
#	134307
#	147078
#	159931
#	177631
#	191008
#	204203
#	214765
#	229906
#	248455
#	261059
#
# Disc length: 3635
#
# Revision: 1
# Processed by: cddbd v1.5.1PL0 Copyright (c) Steve Scherf et al.
# Submitted via: audiograbber 1.70
# Normalized: r0:DSETVAR1
#
DISCID=0d0e3114
DTITLE=Various Artist - Country Gold
DYEAR=1900
DGENRE=
TTITLE0=Kenny Rogers - Ruby, don't take your love to town
TTITLE1=Tammy Wynette - Stand by your man
TTITLE2=Don McLean - American Pie
TTITLE3=Jonny Cash - Ring of Fire
TTITLE4=Kris Kristofferson - Help me make it through the night
TTITLE5=Crystal Gayle - Talking in your sleep
TTITLE6=Glen Campbell - Galveston
TTITLE7=Lynn Anderson - I never promised you a rose garden
TTITLE8=The Bellamy Brothers - If I said you had a beautiful body would you hold it against me
TTITLE9=Billie Jo Spears - What I got in mind
TTITLE10=Willie Nelson - Crazy
TTITLE11=Olivia Newton John - If not for you
TTITLE12=Bobby Goldsboro - Honey
TTITLE13=Loretta Lynn - Coal Miner's Daughter
TTITLE14=Charlie Rich - Behind Closed doors
TTITLE15=Patsy Cline - Patsy Cline
TTITLE16=Don Williams - I recall a gypsy woman
TTITLE17=Juice Newton - Angel of the morning
TTITLE18=Ray Stevens - Misty
TTITLE19=Bobby Gentry - All I have to do is dream
EXTD=
EXTT0=
EXTT1=
EXTT2=
EXTT3=
EXTT4=
EXTT5=
EXTT6=
EXTT7=
EXTT8=
EXTT9=
EXTT10=
EXTT11=
EXTT12=
EXTT13=
EXTT14=
EXTT15=
EXTT16=
EXTT17=
EXTT18=
EXTT19=
PLAYORDER=
